<svg width="40" height="40" viewBox="0 0 40 40" fill="none" xmlns="http://www.w3.org/2000/svg">
<path d="M40 20C40 8.95601 31.044 0 20 0C8.95601 0 0 8.95601 0 20C0 31.044 8.95601 40 20 40C20.1175 40 20.2344 39.9976 20.3516 39.9954V24.4263H16.0547V19.4187H20.3516V15.7337C20.3516 11.46 22.9605 9.13391 26.7727 9.13391C28.5984 9.13391 30.1676 9.27 30.625 9.33078V13.7973H27.9963C25.9223 13.7973 25.5206 14.783 25.5206 16.2292V19.4187H30.4798L29.8334 24.4263H25.5206V39.2273C33.8803 36.8308 40 29.1291 40 20Z" fill="white"/>
</svg>
