<svg width="40" height="40" viewBox="0 0 40 40" fill="none" xmlns="http://www.w3.org/2000/svg">
<path d="M23.8281 20C23.8281 22.1143 22.1142 23.8281 20 23.8281C17.8857 23.8281 16.1719 22.1142 16.1719 20C16.1719 17.8857 17.8858 16.1719 20 16.1719C22.1143 16.1719 23.8281 17.8858 23.8281 20Z" fill="white"/>
<path d="M28.9539 13.2279C28.7698 12.7292 28.4763 12.2779 28.0948 11.9073C27.7243 11.5259 27.2733 11.2323 26.7743 11.0483C26.3697 10.8912 25.7617 10.7041 24.642 10.6531C23.4308 10.5979 23.0677 10.5859 20.0013 10.5859C16.9345 10.5859 16.5714 10.5976 15.3605 10.6528C14.2408 10.7041 13.6325 10.8912 13.2282 11.0483C12.7292 11.2323 12.2779 11.5259 11.9077 11.9073C11.5263 12.2779 11.2327 12.7289 11.0483 13.2279C10.8912 13.6325 10.7041 14.2408 10.6531 15.3605C10.5979 16.5714 10.5859 16.9345 10.5859 20.0012C10.5859 23.0677 10.5979 23.4308 10.6531 24.642C10.7041 25.7617 10.8912 26.3697 11.0483 26.7743C11.2327 27.2733 11.5259 27.7243 11.9073 28.0948C12.2779 28.4762 12.7289 28.7698 13.2279 28.9539C13.6325 29.1113 14.2408 29.2984 15.3605 29.3494C16.5714 29.4046 16.9342 29.4162 20.0009 29.4162C23.068 29.4162 23.4311 29.4046 24.6417 29.3494C25.7614 29.2984 26.3697 29.1113 26.7743 28.9539C27.7759 28.5675 28.5675 27.7759 28.9539 26.7743C29.111 26.3697 29.2981 25.7617 29.3494 24.642C29.4046 23.4308 29.4163 23.0677 29.4163 20.0012C29.4163 16.9345 29.4046 16.5714 29.3494 15.3605C29.2984 14.2408 29.1113 13.6325 28.9539 13.2279ZM20.0013 25.8981C16.7441 25.8981 14.1038 23.258 14.1038 20.0009C14.1038 16.7438 16.7441 14.1037 20.0013 14.1037C23.258 14.1037 25.8984 16.7438 25.8984 20.0009C25.8984 23.258 23.258 25.8981 20.0013 25.8981ZM26.1316 15.2487C25.3705 15.2487 24.7534 14.6316 24.7534 13.8705C24.7534 13.1095 25.3705 12.4924 26.1316 12.4924C26.8927 12.4924 27.5098 13.1095 27.5098 13.8705C27.5095 14.6316 26.8927 15.2487 26.1316 15.2487Z" fill="white"/>
<path d="M20 0C8.95601 0 0 8.95601 0 20C0 31.044 8.95601 40 20 40C31.044 40 40 31.044 40 20C40 8.95601 31.044 0 20 0ZM31.4151 24.7348C31.3595 25.9573 31.1652 26.792 30.8813 27.5226C30.2848 29.0652 29.0652 30.2848 27.5226 30.8813C26.7923 31.1652 25.9573 31.3592 24.7351 31.4151C23.5105 31.4709 23.1192 31.4844 20.0003 31.4844C16.8811 31.4844 16.4902 31.4709 15.2652 31.4151C14.043 31.3592 13.208 31.1652 12.4777 30.8813C11.7111 30.593 11.0172 30.141 10.4434 29.5566C9.8593 28.9831 9.40734 28.2889 9.11898 27.5226C8.83516 26.7923 8.64078 25.9573 8.58523 24.7351C8.52875 23.5102 8.51562 23.1189 8.51562 20C8.51562 16.8811 8.52875 16.4898 8.58492 15.2652C8.64047 14.0427 8.83453 13.208 9.11836 12.4774C9.40672 11.7111 9.85898 11.0169 10.4434 10.4434C11.0169 9.85898 11.7111 9.40703 12.4774 9.11867C13.208 8.83484 14.0427 8.64078 15.2652 8.58492C16.4898 8.52906 16.8811 8.51562 20 8.51562C23.1189 8.51562 23.5102 8.52906 24.7348 8.58523C25.9573 8.64078 26.792 8.83484 27.5226 9.11836C28.2889 9.40672 28.9831 9.85898 29.5569 10.4434C30.141 11.0172 30.5933 11.7111 30.8813 12.4774C31.1655 13.208 31.3595 14.0427 31.4154 15.2652C31.4713 16.4898 31.4844 16.8811 31.4844 20C31.4844 23.1189 31.4713 23.5102 31.4151 24.7348Z" fill="white"/>
</svg>
