<svg width="200" height="51" viewBox="0 0 200 51" fill="none" xmlns="http://www.w3.org/2000/svg">
<path fill-rule="evenodd" clip-rule="evenodd" d="M83.4593 3.94227C82.5725 3.94227 81.8106 4.17088 81.1731 4.62811C80.5359 5.08534 79.9957 5.69487 79.5521 6.45672C79.1089 7.21887 78.7556 8.07799 78.4927 9.03379C78.2291 9.9899 78.0215 10.9734 77.8689 11.9848C77.7165 12.9962 77.6129 13.9937 77.5572 14.9774C77.5019 15.9609 77.4743 16.8407 77.4743 17.6165C77.4743 18.4203 77.4949 19.3138 77.5366 20.2973C77.5779 21.2811 77.6682 22.2785 77.8068 23.2899C77.9452 24.3014 78.1391 25.2918 78.3884 26.2616C78.638 27.2317 78.9773 28.0975 79.4068 28.8594C79.8364 29.6215 80.3696 30.231 81.0071 30.6883C81.6443 31.1455 82.4202 31.3741 83.3346 31.3741C84.2491 31.3741 85.0249 31.1382 85.6621 30.6676C86.2996 30.1964 86.8258 29.5802 87.2414 28.818C87.6573 28.0559 87.9759 27.1831 88.1975 26.1993C88.4191 25.2158 88.5854 24.2184 88.6964 23.2069C88.8071 22.1955 88.8764 21.1981 88.904 20.2143C88.9317 19.2308 88.9457 18.351 88.9457 17.5749C88.9457 16.8824 88.925 16.0649 88.8834 15.1228C88.8417 14.1806 88.7517 13.2109 88.6131 12.2134C88.4745 11.216 88.2875 10.2182 88.0519 9.22076C87.8166 8.22331 87.491 7.33652 87.0754 6.56069C86.6595 5.78486 86.161 5.15465 85.5791 4.66976C84.9972 4.18456 84.2904 3.94227 83.4593 3.94227ZM83.3763 3.2771C84.9556 3.2771 86.4033 3.69997 87.7196 4.54481C89.0357 5.38995 90.1717 6.49837 91.1279 7.86975C92.0836 9.24173 92.8251 10.7934 93.3514 12.525C93.8779 14.2569 94.1409 15.9956 94.1409 17.7415C94.1409 19.5148 93.8779 21.2534 93.3514 22.9573C92.8251 24.6616 92.0836 26.1856 91.1279 27.5293C90.1717 28.8733 89.0357 29.9608 87.7196 30.7922C86.4033 31.6234 84.9556 32.039 83.3763 32.039C81.769 32.039 80.3003 31.6167 78.9706 30.7713C77.6402 29.9261 76.5045 28.811 75.5623 27.4257C74.6202 26.04 73.8857 24.4747 73.3592 22.7287C72.833 20.9831 72.5697 19.2098 72.5697 17.4086C72.5697 15.691 72.8536 13.9867 73.4218 12.2964C73.99 10.6061 74.7655 9.09611 75.7493 7.76608C76.7331 6.43604 77.8758 5.3553 79.1782 4.52414C80.4806 3.69268 81.8799 3.2771 83.3763 3.2771ZM42.0622 31.5404V30.7922H42.5611C43.2536 30.8199 43.8701 30.7783 44.4107 30.6676C44.9509 30.5566 45.2625 30.1271 45.3458 29.3789C45.3735 29.1296 45.4011 28.6101 45.4288 27.8203C45.4565 27.0308 45.4771 26.0746 45.4911 24.9526C45.5051 23.8302 45.5121 22.5834 45.5121 21.2117V17.0347C45.5121 15.5107 45.5051 14.0074 45.4911 12.525C45.4771 11.0427 45.4634 9.71933 45.4495 8.55589C45.4358 7.39215 45.4081 6.44304 45.3665 5.70886C45.3251 4.97438 45.2765 4.57947 45.2212 4.52414H42.1869V3.81763H50.2084L56.7339 22.5627L63.2178 3.81763H70.0343V4.52414H67.7901V30.8339H70.0343V31.5404H60.4331V30.7922H62.7609L62.8022 8.59754L62.4699 8.51424C61.1952 12.2827 59.9135 16.0442 58.6252 19.7987C57.3368 23.5532 56.0274 27.3147 54.6974 31.0832L46.5512 8.01537L46.2183 8.09836V28.714C46.2183 29.0466 46.2463 29.3236 46.3016 29.5452C46.3296 29.8778 46.4539 30.1341 46.6755 30.3143C46.8975 30.494 47.1677 30.6259 47.4863 30.7089C47.8049 30.7922 48.1372 30.8339 48.4838 30.8339H49.7928V31.5404H42.0622ZM41.8959 30.7922H42.0622V30.543L41.8959 30.7922ZM12.3859 31.5404V30.7922H12.8848C13.5773 30.8199 14.1938 30.7783 14.7343 30.6676C15.2746 30.5566 15.5865 30.1271 15.6695 29.3789C15.6971 29.1296 15.7248 28.6101 15.7525 27.8203C15.7801 27.0308 15.8011 26.0746 15.8151 24.9526C15.8288 23.8302 15.8358 22.5834 15.8358 21.2117V17.0347C15.8358 15.5107 15.8288 14.0074 15.8151 12.525C15.8011 11.0427 15.7871 9.71933 15.7731 8.55589C15.7595 7.39215 15.7318 6.44304 15.6904 5.70886C15.6488 4.97438 15.6002 4.57947 15.5448 4.52414H12.5108V3.81763H20.5324L27.0579 22.5627L33.5418 3.81763H40.3582V4.52414H38.1135V30.8339H40.3582V31.5404H30.7571V30.7922H33.0846L33.1262 8.59754L32.7936 8.51424C31.5189 12.2827 30.2375 16.0442 28.9488 19.7987C27.6604 23.5532 26.3511 27.3147 25.0211 31.0832L16.8749 8.01537L16.5423 8.09836V28.714C16.5423 29.0466 16.5699 29.3236 16.6256 29.5452C16.6532 29.8778 16.7779 30.1341 16.9995 30.3143C17.2211 30.494 17.4914 30.6259 17.81 30.7089C18.1289 30.7922 18.4612 30.8339 18.8074 30.8339H20.1168V31.5404H12.3859ZM12.2199 30.7922H12.3859V30.543L12.2199 30.7922ZM0 3.81763H10.3493V4.52414H7.35668V30.8339H10.3493V31.5404H0V30.8339H2.61842V4.52414H0V3.81763Z" fill="white"/>
<path d="M200 0H97.1381V37.0722H200V0Z" fill="black"/>
<path fill-rule="evenodd" clip-rule="evenodd" d="M108.827 18.085V31.0944H111.529V31.8009H101.387V31.0944H103.881L103.673 4.78464H101.387V4.07812H111.529V4.78677H108.827V17.2535H120.091V4.78677H117.472V4.07812H127.614V4.78464H124.995V31.0944H127.614V31.8009H117.472V31.0944H120.091V18.085H108.827Z" fill="white"/>
<path fill-rule="evenodd" clip-rule="evenodd" d="M134.432 22.0333H141.249L137.758 11.1437L134.432 22.0333ZM128.24 31.0943C128.849 31.0943 129.347 31.0526 129.736 30.9696C130.123 30.8863 130.442 30.7343 130.691 30.5121C130.941 30.2911 131.149 29.9652 131.315 29.5353C131.481 29.1061 131.675 28.5585 131.897 27.894C133.088 23.8485 134.293 19.8098 135.513 15.778C136.731 11.7466 137.951 7.70815 139.17 3.66211H140.583L149.436 31.0943H151.265V31.8005H141.332V31.0943H144.116L141.456 22.7398H134.224L133.933 23.571C133.794 23.9869 133.628 24.514 133.435 25.1509C133.241 25.7881 133.054 26.4256 132.873 27.0625C132.693 27.7006 132.534 28.2822 132.395 28.8081C132.256 29.335 132.187 29.6955 132.187 29.8889C132.187 30.2212 132.319 30.4704 132.583 30.6367C132.846 30.803 133.157 30.9216 133.518 30.99C133.877 31.0599 134.245 31.0943 134.619 31.0943H135.596V31.8005H128.24V31.0943Z" fill="white"/>
<path fill-rule="evenodd" clip-rule="evenodd" d="M176.327 4.78464H175.662C175.108 4.78464 174.658 4.79893 174.312 4.82598C173.965 4.85426 173.688 4.9716 173.481 5.17955C173.273 5.38718 173.134 5.72676 173.065 6.19767C172.996 6.66918 172.961 7.33435 172.961 8.19287V22.3657C172.961 25.9682 172.234 28.5383 170.779 30.0757C169.324 31.6136 167.142 32.3825 164.233 32.3825C163.318 32.3825 162.313 32.3132 161.22 32.1748C160.125 32.0359 159.086 31.7529 158.102 31.3227C157.118 30.8934 156.259 30.2909 155.525 29.5151C154.79 28.7392 154.34 27.7141 154.174 26.4391C154.118 26.1345 154.091 25.7466 154.091 25.2751V23.7374V4.78464H151.473V4.07812H161.988V4.78464H159.328V22.6986C159.328 23.9733 159.404 25.1443 159.557 26.2108C159.709 27.2773 160 28.1993 160.43 28.9742C160.859 29.7504 161.448 30.3605 162.196 30.8031C162.945 31.2467 163.9 31.4683 165.064 31.4683C166.339 31.4683 167.426 31.2397 168.327 30.7825C169.227 30.3255 169.947 29.6744 170.488 28.8292C171.028 27.9844 171.423 26.9587 171.672 25.7533C171.922 24.5479 172.047 23.2112 172.047 21.7425V8.19287C172.047 7.30608 171.999 6.62753 171.901 6.15632C171.804 5.68511 171.645 5.33915 171.423 5.11692C171.201 4.89591 170.91 4.77096 170.55 4.74299C170.19 4.71563 169.747 4.71563 169.221 4.74299C169.082 4.74299 168.936 4.75029 168.784 4.76397C168.632 4.77826 168.457 4.78464 168.264 4.78464V4.07812H176.327V4.78464Z" fill="white"/>
<path fill-rule="evenodd" clip-rule="evenodd" d="M178.74 21.9087H179.364C179.474 23.3221 179.696 24.6038 180.029 25.7532C180.361 26.9036 180.84 27.894 181.463 28.7249C182.087 29.5567 182.869 30.2009 183.812 30.6581C184.752 31.115 185.875 31.3439 187.178 31.3439C187.981 31.3439 188.708 31.219 189.36 30.9697C190.011 30.7201 190.551 30.3668 190.981 29.9096C191.41 29.4524 191.701 28.9055 191.854 28.268C192.006 27.6308 191.985 26.9376 191.792 26.1901C191.569 25.3866 191.036 24.7351 190.191 24.2365C189.346 23.7373 188.355 23.2251 187.22 22.6986C186.249 22.2556 185.258 21.7704 184.248 21.2439C183.236 20.7176 182.301 20.0595 181.442 19.2693C180.583 18.4801 179.883 17.531 179.343 16.4226C178.803 15.3145 178.533 13.9565 178.533 12.3492C178.533 12.0996 178.539 11.823 178.553 11.5177C178.567 11.2131 178.601 10.9088 178.657 10.6033C178.962 8.35911 179.724 6.6901 180.944 5.59507C182.162 4.50064 183.812 3.89809 185.889 3.78713C187.053 3.75977 188.023 3.93974 188.799 4.32735C189.574 4.71588 190.211 5.08981 190.71 5.44945C191.182 5.83797 191.569 6.03162 191.874 6.03162C192.262 6.03162 192.498 5.84435 192.581 5.47042C192.665 5.09649 192.706 4.74324 192.706 4.41065H193.371V12.7648H192.665C192.47 11.546 192.207 10.4309 191.874 9.41888C191.542 8.40775 191.106 7.54862 190.565 6.84211C190.025 6.13529 189.366 5.58868 188.591 5.20016C187.815 4.81255 186.887 4.61829 185.806 4.61829C185.085 4.61829 184.393 4.71588 183.728 4.90922C183.063 5.10379 182.488 5.40172 182.003 5.8027C181.518 6.20491 181.144 6.72446 180.881 7.36166C180.617 7.99946 180.513 8.761 180.57 9.64749C180.624 10.3954 180.818 11.0398 181.151 11.5804C181.483 12.1206 181.913 12.5921 182.44 12.9931C182.966 13.3953 183.561 13.7486 184.226 14.0535C184.892 14.3587 185.584 14.6496 186.305 14.926C187.22 15.2865 188.141 15.6951 189.069 16.152C189.997 16.6096 190.856 17.1775 191.645 17.856C192.436 18.5358 193.101 19.3596 193.641 20.3294C194.181 21.2998 194.52 22.4769 194.659 23.862C194.715 25.1373 194.555 26.2934 194.181 27.3325C193.808 28.3716 193.28 29.2657 192.602 30.0139C191.923 30.7618 191.106 31.3372 190.149 31.7382C189.194 32.1401 188.161 32.3411 187.053 32.3411C185.972 32.3411 185.017 32.1818 184.185 31.8635C183.354 31.5449 182.633 31.2333 182.024 30.9277C181.691 30.7344 181.38 30.5748 181.089 30.4501C180.798 30.3255 180.513 30.2632 180.237 30.2632C179.931 30.2632 179.717 30.4848 179.592 30.9277C179.468 31.3713 179.392 31.7592 179.364 32.0918H178.74V21.9087Z" fill="white"/>
<path fill-rule="evenodd" clip-rule="evenodd" d="M47.0784 50.7315C49.3113 50.7315 50.9806 49.1261 50.9806 46.9463C50.9806 44.7666 49.3113 43.1611 47.0784 43.1611C44.8241 43.1611 43.1655 44.7772 43.1655 46.9463C43.1655 49.1154 44.8241 50.7315 47.0784 50.7315ZM130.491 46.9463V49.7852C129.79 50.4126 128.79 50.7315 127.759 50.7315C125.494 50.7315 123.836 49.1261 123.836 46.9463C123.836 44.7666 125.494 43.1611 127.77 43.1611C128.897 43.1611 129.875 43.5226 130.534 44.2349L130.045 44.7347C129.418 44.1178 128.673 43.8628 127.802 43.8628C125.962 43.8628 124.612 45.1706 124.612 46.9463C124.612 48.7111 125.962 50.0296 127.791 50.0296C128.503 50.0296 129.162 49.8703 129.737 49.4556V46.9463H130.491ZM31.2888 43.225C33.1812 43.225 34.3298 44.1817 34.3298 45.7765C34.3298 47.361 33.1812 48.318 31.2888 48.318H29.2899V50.6677H28.5032V43.225H31.2888ZM38.923 43.225C40.8158 43.225 41.964 44.1817 41.964 45.7765C41.964 46.9463 41.3472 47.765 40.2628 48.1159L42.0808 50.6677H41.2195L39.5186 48.2755C39.3271 48.2964 39.1355 48.3071 38.923 48.3071H36.9239V50.6677H36.1374V43.225H38.923ZM55.5313 43.225C57.424 43.225 58.5723 44.1817 58.5723 45.7765C58.5723 47.361 57.424 48.318 55.5313 48.318H53.5324V50.6677H52.7454V43.225H55.5313ZM65.3772 43.225V43.9053H61.0603V46.5529H64.9093V47.2227H61.0603V49.9873H65.5368V50.6677H60.2735V43.225H65.3772ZM70.1726 43.225C72.0651 43.225 73.2136 44.1817 73.2136 45.7765C73.2136 46.9463 72.5968 47.765 71.5121 48.1159L73.3303 50.6677H72.4691L70.7679 48.2755C70.5766 48.2964 70.3851 48.3071 70.1726 48.3071H68.1735V50.6677H67.3867V43.225H70.1726ZM79.8164 43.225V43.9053H77.2007V50.6677H76.4139V43.9053H73.7982V43.225H79.8164ZM83.5696 50.6677H82.7935V48.0946L79.8164 43.225H80.6563L83.2082 47.4036L85.76 43.225H86.5468L83.5696 48.0946V50.6677ZM94.4364 48.743L97.6367 43.225H98.2854V50.6677H97.5303V44.7134L94.6063 49.7216H94.2342L91.3103 44.7453V50.6677H90.5554V43.225H91.2039L94.4364 48.743ZM119.965 43.225L123.368 50.6677H122.538L121.645 48.6795H117.498L116.605 50.6677H115.787L119.189 43.225H119.965ZM103.697 43.225L107.1 50.6677H106.271L105.377 48.6795H101.231L100.337 50.6677H99.5185L102.921 43.225H103.697ZM113.777 49.2641V43.225H114.553V50.6677H113.905L109.12 44.6283V50.6677H108.333V43.225H108.982L113.777 49.2641ZM138.156 43.225V43.9053H133.839V46.5529H137.688V47.2227H133.839V49.9873H138.316V50.6677H133.052V43.225H138.156ZM144.62 48.743L147.821 43.225H148.47V50.6677H147.715V44.7134L144.791 49.7216H144.419L141.494 44.7453V50.6677H140.74V43.225H141.388L144.62 48.743ZM155.997 43.225V43.9053H151.681V46.5529H155.53V47.2227H151.681V49.9873H156.157V50.6677H150.894V43.225H155.997ZM163.451 49.2641V43.225H164.227V50.6677H163.579L158.794 44.6283V50.6677H158.007V43.225H158.656L163.451 49.2641ZM171.5 43.225V43.9053H168.884V50.6677H168.097V43.9053H165.482V43.225H171.5ZM47.0784 50.0296C45.2814 50.0296 43.9416 48.722 43.9416 46.9463C43.9416 45.1706 45.2814 43.8628 47.0784 43.8628C48.8647 43.8628 50.1935 45.1706 50.1935 46.9463C50.1935 48.722 48.8647 50.0296 47.0784 50.0296ZM105.09 48.0414L103.304 44.0437L101.518 48.0414H105.09ZM121.358 48.0414L119.572 44.0437L117.785 48.0414H121.358ZM70.1513 47.6373C71.6398 47.6373 72.4265 46.9463 72.4265 45.7765C72.4265 44.5857 71.6398 43.9053 70.1513 43.9053H68.1735V47.6373H70.1513ZM38.9018 47.6373C40.3902 47.6373 41.1773 46.9463 41.1773 45.7765C41.1773 44.5857 40.3902 43.9053 38.9018 43.9053H36.9239V47.6373H38.9018ZM55.51 47.6267C56.9984 47.6267 57.7855 46.9463 57.7855 45.7765C57.7855 44.5857 56.9984 43.9053 55.51 43.9053H53.5324V47.6267H55.51ZM31.2675 47.6267C32.7559 47.6267 33.5427 46.9463 33.5427 45.7765C33.5427 44.5857 32.7559 43.9053 31.2675 43.9053H29.2899V47.6267H31.2675Z" fill="white"/>
</svg>
