<svg width="200" height="51" viewBox="0 0 200 51" fill="none" xmlns="http://www.w3.org/2000/svg">
<path fill-rule="evenodd" clip-rule="evenodd" d="M83.4593 3.94223C82.5725 3.94223 81.8106 4.17085 81.1731 4.62808C80.5359 5.0853 79.9957 5.69484 79.5521 6.45668C79.1089 7.21883 78.7556 8.07796 78.4927 9.03376C78.2291 9.98986 78.0215 10.9733 77.8689 11.9848C77.7165 12.9962 77.6129 13.9936 77.5572 14.9774C77.5019 15.9609 77.4743 16.8407 77.4743 17.6165C77.4743 18.4203 77.4949 19.3138 77.5366 20.2972C77.5779 21.281 77.6682 22.2785 77.8068 23.2899C77.9452 24.3013 78.1391 25.2918 78.3884 26.2616C78.638 27.2317 78.9773 28.0975 79.4068 28.8593C79.8364 29.6215 80.3696 30.231 81.0071 30.6882C81.6443 31.1455 82.4202 31.3741 83.3346 31.3741C84.2491 31.3741 85.0249 31.1382 85.6621 30.6676C86.2996 30.1964 86.8258 29.5801 87.2414 28.818C87.6573 28.0558 87.9759 27.183 88.1975 26.1993C88.4191 25.2158 88.5854 24.2183 88.6964 23.2069C88.8071 22.1955 88.8764 21.198 88.904 20.2143C88.9317 19.2308 88.9457 18.351 88.9457 17.5749C88.9457 16.8823 88.925 16.0649 88.8834 15.1227C88.8417 14.1806 88.7517 13.2108 88.6131 12.2134C88.4745 11.2159 88.2875 10.2182 88.0519 9.22072C87.8166 8.22327 87.491 7.33648 87.0754 6.56065C86.6595 5.78483 86.161 5.15462 85.5791 4.66973C84.9972 4.18453 84.2904 3.94223 83.4593 3.94223ZM83.3763 3.27707C84.9556 3.27707 86.4033 3.69994 87.7196 4.54478C89.0357 5.38992 90.1717 6.49833 91.1279 7.86971C92.0836 9.2417 92.8251 10.7934 93.3514 12.525C93.8779 14.2569 94.1409 15.9955 94.1409 17.7415C94.1409 19.5147 93.8779 21.2534 93.3514 22.9573C92.8251 24.6616 92.0836 26.1856 91.1279 27.5293C90.1717 28.8733 89.0357 29.9607 87.7196 30.7922C86.4033 31.6234 84.9556 32.0389 83.3763 32.0389C81.769 32.0389 80.3003 31.6167 78.9706 30.7712C77.6402 29.9261 76.5045 28.811 75.5623 27.4256C74.6202 26.04 73.8857 24.4746 73.3592 22.7287C72.833 20.9831 72.5697 19.2098 72.5697 17.4086C72.5697 15.6909 72.8536 13.9867 73.4218 12.2964C73.99 10.6061 74.7655 9.09608 75.7493 7.76604C76.7331 6.43601 77.8758 5.35526 79.1782 4.52411C80.4806 3.69264 81.8799 3.27707 83.3763 3.27707ZM42.0622 31.5404V30.7922H42.5611C43.2536 30.8199 43.8701 30.7782 44.4107 30.6676C44.9509 30.5566 45.2625 30.127 45.3458 29.3789C45.3735 29.1296 45.4011 28.61 45.4288 27.8202C45.4565 27.0307 45.4771 26.0746 45.4911 24.9525C45.5051 23.8301 45.5121 22.5834 45.5121 21.2117V17.0346C45.5121 15.5106 45.5051 14.0073 45.4911 12.525C45.4771 11.0426 45.4634 9.7193 45.4495 8.55586C45.4358 7.39212 45.4081 6.443 45.3665 5.70882C45.3251 4.97434 45.2765 4.57943 45.2212 4.52411H42.1869V3.81759H50.2084L56.7339 22.5627L63.2178 3.81759H70.0343V4.52411H67.7901V30.8339H70.0343V31.5404H60.4331V30.7922H62.7609L62.8022 8.59751L62.4699 8.51421C61.1952 12.2827 59.9135 16.0442 58.6252 19.7987C57.3368 23.5532 56.0274 27.3147 54.6974 31.0831L46.5512 8.01533L46.2183 8.09833V28.714C46.2183 29.0466 46.2463 29.3235 46.3016 29.5452C46.3296 29.8778 46.4539 30.134 46.6755 30.3143C46.8975 30.494 47.1677 30.6259 47.4863 30.7089C47.8049 30.7922 48.1372 30.8339 48.4838 30.8339H49.7928V31.5404H42.0622ZM41.8959 30.7922H42.0622V30.5429L41.8959 30.7922ZM12.3859 31.5404V30.7922H12.8848C13.5773 30.8199 14.1938 30.7782 14.7343 30.6676C15.2746 30.5566 15.5865 30.127 15.6695 29.3789C15.6971 29.1296 15.7248 28.61 15.7525 27.8202C15.7801 27.0307 15.8011 26.0746 15.8151 24.9525C15.8288 23.8301 15.8358 22.5834 15.8358 21.2117V17.0346C15.8358 15.5106 15.8288 14.0073 15.8151 12.525C15.8011 11.0426 15.7871 9.7193 15.7731 8.55586C15.7595 7.39212 15.7318 6.443 15.6904 5.70882C15.6488 4.97434 15.6002 4.57943 15.5448 4.52411H12.5108V3.81759H20.5324L27.0579 22.5627L33.5418 3.81759H40.3582V4.52411H38.1135V30.8339H40.3582V31.5404H30.7571V30.7922H33.0846L33.1262 8.59751L32.7936 8.51421C31.5189 12.2827 30.2375 16.0442 28.9488 19.7987C27.6604 23.5532 26.3511 27.3147 25.0211 31.0831L16.8749 8.01533L16.5423 8.09833V28.714C16.5423 29.0466 16.5699 29.3235 16.6256 29.5452C16.6532 29.8778 16.7779 30.134 16.9995 30.3143C17.2211 30.494 17.4914 30.6259 17.81 30.7089C18.1289 30.7922 18.4612 30.8339 18.8074 30.8339H20.1168V31.5404H12.3859ZM12.2199 30.7922H12.3859V30.5429L12.2199 30.7922ZM0 3.81759H10.3493V4.52411H7.35668V30.8339H10.3493V31.5404H0V30.8339H2.61842V4.52411H0V3.81759Z" fill="white"/>
<path d="M200 0H97.1382V37.0722H200V0Z" fill="black"/>
<path fill-rule="evenodd" clip-rule="evenodd" d="M108.827 18.0849V31.0943H111.529V31.8008H101.387V31.0943H103.881L103.673 4.78451H101.387V4.078H111.529V4.78664H108.827V17.2534H120.091V4.78664H117.472V4.078H127.614V4.78451H124.995V31.0943H127.614V31.8008H117.472V31.0943H120.091V18.0849H108.827Z" fill="white"/>
<path fill-rule="evenodd" clip-rule="evenodd" d="M134.432 22.0334H141.249L137.758 11.1439L134.432 22.0334ZM128.24 31.0944C128.849 31.0944 129.347 31.0527 129.736 30.9698C130.123 30.8865 130.442 30.7345 130.691 30.5122C130.941 30.2912 131.149 29.9653 131.315 29.5354C131.481 29.1062 131.675 28.5587 131.897 27.8941C133.088 23.8487 134.293 19.8099 135.513 15.7782C136.731 11.7467 137.951 7.70828 139.17 3.66224H140.583L149.436 31.0944H151.265V31.8006H141.332V31.0944H144.116L141.456 22.74H134.224L133.933 23.5711C133.794 23.987 133.628 24.5141 133.435 25.151C133.241 25.7882 133.054 26.4257 132.873 27.0626C132.693 27.7008 132.534 28.2823 132.395 28.8083C132.257 29.3351 132.188 29.6957 132.188 29.889C132.188 30.2213 132.319 30.4706 132.583 30.6369C132.846 30.8032 133.157 30.9217 133.518 30.9901C133.878 31.06 134.245 31.0944 134.619 31.0944H135.596V31.8006H128.24V31.0944Z" fill="white"/>
<path fill-rule="evenodd" clip-rule="evenodd" d="M176.327 4.78451H175.663C175.108 4.78451 174.658 4.7988 174.312 4.82585C173.965 4.85413 173.688 4.97147 173.481 5.17942C173.273 5.38705 173.134 5.72663 173.065 6.19754C172.996 6.66905 172.961 7.33422 172.961 8.19274V22.3656C172.961 25.9681 172.234 28.5382 170.779 30.0755C169.325 31.6135 167.142 32.3823 164.233 32.3823C163.318 32.3823 162.314 32.313 161.22 32.1747C160.125 32.0358 159.086 31.7527 158.102 31.3226C157.118 30.8933 156.259 30.2908 155.525 29.5149C154.791 28.7391 154.34 27.714 154.174 26.439C154.118 26.1344 154.091 25.7465 154.091 25.2749V23.7373V4.78451H151.473V4.078H161.989V4.78451H159.328V22.6985C159.328 23.9732 159.404 25.1442 159.557 26.2107C159.709 27.2771 160 28.1992 160.43 28.9741C160.859 29.7502 161.448 30.3604 162.196 30.803C162.945 31.2466 163.9 31.4682 165.064 31.4682C166.339 31.4682 167.426 31.2396 168.327 30.7823C169.227 30.3254 169.948 29.6742 170.488 28.8291C171.029 27.9843 171.423 26.9585 171.672 25.7531C171.922 24.5477 172.047 23.211 172.047 21.7424V8.19274C172.047 7.30595 171.999 6.6274 171.901 6.15619C171.804 5.68498 171.645 5.33902 171.423 5.11679C171.201 4.89578 170.91 4.77083 170.55 4.74286C170.19 4.7155 169.747 4.7155 169.221 4.74286C169.082 4.74286 168.936 4.75016 168.784 4.76384C168.632 4.77813 168.458 4.78451 168.265 4.78451V4.078H176.327V4.78451Z" fill="white"/>
<path fill-rule="evenodd" clip-rule="evenodd" d="M178.74 21.9088H179.364C179.474 23.3222 179.696 24.6039 180.029 25.7533C180.361 26.9037 180.84 27.8941 181.463 28.725C182.087 29.5568 182.869 30.201 183.812 30.6582C184.752 31.1151 185.875 31.344 187.178 31.344C187.981 31.344 188.708 31.2191 189.36 30.9698C190.011 30.7202 190.551 30.3669 190.981 29.9097C191.41 29.4525 191.701 28.9056 191.854 28.2681C192.006 27.6309 191.985 26.9377 191.792 26.1902C191.569 25.3867 191.036 24.7352 190.191 24.2366C189.346 23.7374 188.355 23.2252 187.22 22.6987C186.249 22.2557 185.258 21.7705 184.248 21.244C183.236 20.7177 182.301 20.0596 181.442 19.2694C180.583 18.4802 179.883 17.5311 179.343 16.4227C178.803 15.3146 178.533 13.9566 178.533 12.3493C178.533 12.0997 178.539 11.8231 178.553 11.5178C178.567 11.2132 178.601 10.9089 178.657 10.6034C178.962 8.35921 179.724 6.6902 180.944 5.59517C182.162 4.50074 183.812 3.89819 185.889 3.78723C187.053 3.75987 188.023 3.93984 188.799 4.32745C189.574 4.71597 190.211 5.0899 190.71 5.44955C191.182 5.83807 191.569 6.03172 191.874 6.03172C192.262 6.03172 192.498 5.84445 192.581 5.47052C192.665 5.09659 192.706 4.74334 192.706 4.41075H193.371V12.7649H192.665C192.47 11.5461 192.207 10.431 191.874 9.41898C191.542 8.40785 191.106 7.54872 190.565 6.84221C190.025 6.13539 189.366 5.58878 188.591 5.20026C187.815 4.81265 186.887 4.61839 185.806 4.61839C185.085 4.61839 184.393 4.71597 183.728 4.90932C183.063 5.10389 182.488 5.40182 182.003 5.8028C181.518 6.20501 181.144 6.72456 180.881 7.36176C180.617 7.99956 180.513 8.7611 180.57 9.64759C180.624 10.3955 180.818 11.0399 181.151 11.5805C181.483 12.1207 181.913 12.5922 182.44 12.9932C182.966 13.3954 183.561 13.7487 184.226 14.0536C184.892 14.3588 185.584 14.6497 186.305 14.9261C187.22 15.2866 188.141 15.6952 189.069 16.1521C189.997 16.6097 190.856 17.1776 191.645 17.8561C192.436 18.5359 193.101 19.3597 193.641 20.3295C194.181 21.2999 194.52 22.477 194.659 23.8621C194.715 25.1374 194.555 26.2935 194.181 27.3326C193.808 28.3717 193.28 29.2658 192.602 30.014C191.923 30.7619 191.106 31.3373 190.149 31.7383C189.194 32.1402 188.161 32.3412 187.053 32.3412C185.972 32.3412 185.017 32.1819 184.185 31.8636C183.354 31.545 182.633 31.2334 182.024 30.9278C181.691 30.7345 181.38 30.5749 181.089 30.4502C180.798 30.3256 180.513 30.2633 180.237 30.2633C179.931 30.2633 179.717 30.4849 179.592 30.9278C179.468 31.3714 179.392 31.7593 179.364 32.0919H178.74V21.9088Z" fill="white"/>
<path fill-rule="evenodd" clip-rule="evenodd" d="M47.0784 50.7317C49.3113 50.7317 50.9806 49.1262 50.9806 46.9465C50.9806 44.7667 49.3113 43.1613 47.0784 43.1613C44.8241 43.1613 43.1655 44.7774 43.1655 46.9465C43.1655 49.1156 44.8241 50.7317 47.0784 50.7317ZM130.491 46.9465V49.7853C129.79 50.4128 128.79 50.7317 127.759 50.7317C125.494 50.7317 123.836 49.1262 123.836 46.9465C123.836 44.7667 125.494 43.1613 127.77 43.1613C128.897 43.1613 129.875 43.5227 130.534 44.235L130.045 44.7348C129.418 44.118 128.673 43.8629 127.802 43.8629C125.962 43.8629 124.612 45.1708 124.612 46.9465C124.612 48.7112 125.962 50.0297 127.791 50.0297C128.503 50.0297 129.162 49.8704 129.737 49.4557V46.9465H130.491ZM31.2888 43.2251C33.1812 43.2251 34.3298 44.1818 34.3298 45.7766C34.3298 47.3611 33.1812 48.3181 31.2888 48.3181H29.2899V50.6678H28.5032V43.2251H31.2888ZM38.923 43.2251C40.8158 43.2251 41.964 44.1818 41.964 45.7766C41.964 46.9465 41.3472 47.7652 40.2628 48.116L42.0808 50.6678H41.2195L39.5186 48.2756C39.3271 48.2966 39.1355 48.3072 38.923 48.3072H36.9239V50.6678H36.1374V43.2251H38.923ZM55.5313 43.2251C57.424 43.2251 58.5723 44.1818 58.5723 45.7766C58.5723 47.3611 57.424 48.3181 55.5313 48.3181H53.5324V50.6678H52.7454V43.2251H55.5313ZM65.3772 43.2251V43.9055H61.0603V46.5531H64.9093V47.2228H61.0603V49.9875H65.5368V50.6678H60.2735V43.2251H65.3772ZM70.1726 43.2251C72.0651 43.2251 73.2136 44.1818 73.2136 45.7766C73.2136 46.9465 72.5968 47.7652 71.5121 48.116L73.3303 50.6678H72.4691L70.7679 48.2756C70.5766 48.2966 70.3851 48.3072 70.1726 48.3072H68.1735V50.6678H67.3867V43.2251H70.1726ZM79.8164 43.2251V43.9055H77.2007V50.6678H76.4139V43.9055H73.7982V43.2251H79.8164ZM83.5696 50.6678H82.7935V48.0947L79.8164 43.2251H80.6563L83.2082 47.4037L85.76 43.2251H86.5468L83.5696 48.0947V50.6678ZM94.4364 48.7431L97.6367 43.2251H98.2854V50.6678H97.5303V44.7135L94.6063 49.7217H94.2342L91.3103 44.7454V50.6678H90.5554V43.2251H91.2039L94.4364 48.7431ZM119.965 43.2251L123.368 50.6678H122.538L121.645 48.6796H117.498L116.605 50.6678H115.787L119.189 43.2251H119.965ZM103.697 43.2251L107.1 50.6678H106.271L105.377 48.6796H101.231L100.337 50.6678H99.5185L102.921 43.2251H103.697ZM113.777 49.2642V43.2251H114.553V50.6678H113.905L109.12 44.6284V50.6678H108.333V43.2251H108.982L113.777 49.2642ZM138.156 43.2251V43.9055H133.839V46.5531H137.688V47.2228H133.839V49.9875H138.316V50.6678H133.052V43.2251H138.156ZM144.62 48.7431L147.821 43.2251H148.47V50.6678H147.715V44.7135L144.791 49.7217H144.419L141.494 44.7454V50.6678H140.74V43.2251H141.388L144.62 48.7431ZM155.997 43.2251V43.9055H151.681V46.5531H155.53V47.2228H151.681V49.9875H156.157V50.6678H150.894V43.2251H155.997ZM163.451 49.2642V43.2251H164.227V50.6678H163.579L158.794 44.6284V50.6678H158.007V43.2251H158.656L163.451 49.2642ZM171.5 43.2251V43.9055H168.884V50.6678H168.097V43.9055H165.482V43.2251H171.5ZM47.0784 50.0297C45.2814 50.0297 43.9416 48.7222 43.9416 46.9465C43.9416 45.1708 45.2814 43.8629 47.0784 43.8629C48.8647 43.8629 50.1935 45.1708 50.1935 46.9465C50.1935 48.7222 48.8647 50.0297 47.0784 50.0297ZM105.09 48.0415L103.304 44.0438L101.518 48.0415H105.09ZM121.358 48.0415L119.572 44.0438L117.785 48.0415H121.358ZM70.1513 47.6375C71.6398 47.6375 72.4265 46.9465 72.4265 45.7766C72.4265 44.5858 71.6398 43.9055 70.1513 43.9055H68.1735V47.6375H70.1513ZM38.9018 47.6375C40.3902 47.6375 41.1773 46.9465 41.1773 45.7766C41.1773 44.5858 40.3902 43.9055 38.9018 43.9055H36.9239V47.6375H38.9018ZM55.51 47.6268C56.9984 47.6268 57.7855 46.9465 57.7855 45.7766C57.7855 44.5858 56.9984 43.9055 55.51 43.9055H53.5324V47.6268H55.51ZM31.2675 47.6268C32.7559 47.6268 33.5427 46.9465 33.5427 45.7766C33.5427 44.5858 32.7559 43.9055 31.2675 43.9055H29.2899V47.6268H31.2675Z" fill="white"/>
</svg>
