<svg width="40" height="40" viewBox="0 0 40 40" fill="none" xmlns="http://www.w3.org/2000/svg">
<path fill-rule="evenodd" clip-rule="evenodd" d="M20 0C8.95431 0 0 8.95431 0 20C0 31.0457 8.95431 40 20 40C31.0457 40 40 31.0457 40 20C40 8.95431 31.0457 0 20 0ZM31.8393 12.707C32.7216 12.707 32.907 13.1613 32.7216 13.7794V13.7796C32.3507 15.4796 28.7965 20.4866 28.7965 20.4866C28.4873 20.9808 28.3637 21.228 28.7965 21.7844C28.9487 21.9976 29.2738 22.316 29.6457 22.6803C30.0283 23.0551 30.4605 23.4786 30.8053 23.8861C32.0585 25.296 33.0029 26.485 33.2659 27.3048C33.5063 28.1273 33.0896 28.5441 32.2561 28.5441H29.3387C28.5574 28.5441 28.164 28.1064 27.3142 27.161C26.9538 26.76 26.5112 26.2677 25.9221 25.6786C24.191 24.0097 23.4494 23.7934 23.0164 23.7934C22.4294 23.7934 22.2537 23.9597 22.2537 24.7932V27.4094C22.2537 28.1273 22.0245 28.5441 20.1699 28.5441C17.0792 28.5441 13.683 26.6674 11.272 23.2062C7.65594 18.1375 6.66675 14.3049 6.66675 13.5322C6.66675 13.0994 6.83345 12.707 7.66698 12.707H10.5843C11.3299 12.707 11.6104 13.0334 11.89 13.8413C13.317 17.9974 15.7226 21.6299 16.7116 21.6299C17.0825 21.6299 17.2526 21.4591 17.2526 20.5172V16.221C17.1856 14.9982 16.7585 14.4694 16.4421 14.0777C16.2467 13.8358 16.0935 13.6461 16.0935 13.3776C16.0935 13.0513 16.3723 12.707 16.8358 12.707H21.4202C22.0385 12.707 22.2537 13.0375 22.2537 13.7794V19.559C22.2537 20.1771 22.5221 20.3932 22.7076 20.3932C23.0785 20.3932 23.3875 20.1771 24.0675 19.4972C26.1692 17.1483 27.6529 13.5322 27.6529 13.5322C27.8384 13.0994 28.1801 12.707 28.9219 12.707H31.8393Z" fill="white"/>
</svg>
